<svg width="22" height="22" viewBox="0 0 22 22" fill="none" xmlns="http://www.w3.org/2000/svg">
<mask id="path-1-inside-1_4_5" fill="white">
<path d="M16.54 21.4765H4.96C2.22 21.4765 0 19.2465 0 16.5065V9.09654C0 7.73654 0.84 6.02654 1.92 5.18654L7.31 0.986537C8.93 -0.273463 11.52 -0.333463 13.2 0.846536L19.38 5.17654C20.57 6.00654 21.5 7.78654 21.5 9.23654V16.5165C21.5 19.2465 19.28 21.4765 16.54 21.4765ZM8.23 2.16654L2.84 6.36654C2.13 6.92654 1.5 8.19654 1.5 9.09654V16.5065C1.5 18.4165 3.05 19.9765 4.96 19.9765H16.54C18.45 19.9765 20 18.4265 20 16.5165V9.23654C20 8.27654 19.31 6.94654 18.52 6.40654L12.34 2.07654C11.2 1.27654 9.32 1.31654 8.23 2.16654Z"/>
</mask>
<path d="M16.54 21.4765H4.96C2.22 21.4765 0 19.2465 0 16.5065V9.09654C0 7.73654 0.84 6.02654 1.92 5.18654L7.31 0.986537C8.93 -0.273463 11.52 -0.333463 13.2 0.846536L19.38 5.17654C20.57 6.00654 21.5 7.78654 21.5 9.23654V16.5165C21.5 19.2465 19.28 21.4765 16.54 21.4765ZM8.23 2.16654L2.84 6.36654C2.13 6.92654 1.5 8.19654 1.5 9.09654V16.5065C1.5 18.4165 3.05 19.9765 4.96 19.9765H16.54C18.45 19.9765 20 18.4265 20 16.5165V9.23654C20 8.27654 19.31 6.94654 18.52 6.40654L12.34 2.07654C11.2 1.27654 9.32 1.31654 8.23 2.16654Z" fill="#707B81"/>
<path d="M1.92 5.18654L3.14788 6.76524L3.1493 6.76414L1.92 5.18654ZM7.31 0.986537L6.08212 -0.592169L6.0807 -0.591064L7.31 0.986537ZM13.2 0.846536L12.0505 2.48317L12.0524 2.4845L13.2 0.846536ZM19.38 5.17654L18.2324 6.81451L18.2359 6.81694L19.38 5.17654ZM8.23 2.16654L9.4593 3.74414L9.45988 3.74368L8.23 2.16654ZM2.84 6.36654L1.61068 4.78891L1.60143 4.79621L2.84 6.36654ZM18.52 6.40654L17.3724 8.0445L17.3818 8.05114L17.3914 8.05766L18.52 6.40654ZM12.34 2.07654L11.1911 3.71365L11.1924 3.7145L12.34 2.07654ZM16.54 19.4765H4.96V23.4765H16.54V19.4765ZM4.96 19.4765C3.32981 19.4765 2 18.1472 2 16.5065H-2C-2 20.3459 1.11019 23.4765 4.96 23.4765V19.4765ZM2 16.5065V9.09654H-2V16.5065H2ZM2 9.09654C2 8.79467 2.10387 8.32975 2.3502 7.82816C2.59621 7.32722 2.90277 6.95589 3.14788 6.76524L0.692119 3.60783C-0.142767 4.25719 -0.796212 5.16085 -1.2402 6.06491C-1.68387 6.96832 -2 8.0384 -2 9.09654H2ZM3.1493 6.76414L8.5393 2.56414L6.0807 -0.591064L0.690701 3.60894L3.1493 6.76414ZM8.53788 2.56524C9.46216 1.84636 11.0875 1.80679 12.0505 2.48317L14.3495 -0.790095C11.9525 -2.47371 8.39784 -2.39329 6.08212 -0.592168L8.53788 2.56524ZM12.0524 2.4845L18.2324 6.8145L20.5276 3.53857L14.3476 -0.791429L12.0524 2.4845ZM18.2359 6.81694C18.5072 7.00622 18.8435 7.3829 19.1135 7.8999C19.3835 8.41701 19.5 8.90723 19.5 9.23654H23.5C23.5 8.11584 23.1515 6.99107 22.659 6.04818C22.1665 5.10518 21.4428 4.17686 20.5241 3.53613L18.2359 6.81694ZM19.5 9.23654V16.5165H23.5V9.23654H19.5ZM19.5 16.5165C19.5 18.1446 18.1728 19.4765 16.54 19.4765V23.4765C20.3872 23.4765 23.5 20.3485 23.5 16.5165H19.5ZM7.0007 0.588936L1.6107 4.78894L4.0693 7.94414L9.4593 3.74414L7.0007 0.588936ZM1.60143 4.79621C0.939797 5.31806 0.439462 6.05051 0.109546 6.72039C-0.219143 7.38778 -0.5 8.23936 -0.5 9.09654H3.5C3.5 9.099 3.49993 9.08246 3.50556 9.04556C3.5111 9.00929 3.52102 8.96069 3.53755 8.90078C3.57121 8.77872 3.62509 8.63564 3.69795 8.48768C3.86054 8.15756 4.0302 7.97502 4.07857 7.93687L1.60143 4.79621ZM-0.5 9.09654V16.5065H3.5V9.09654H-0.5ZM-0.5 16.5065C-0.5 19.5136 1.93793 21.9765 4.96 21.9765V17.9765C4.16207 17.9765 3.5 17.3195 3.5 16.5065H-0.5ZM4.96 21.9765H16.54V17.9765H4.96V21.9765ZM16.54 21.9765C19.5546 21.9765 22 19.5311 22 16.5165H18C18 17.322 17.3454 17.9765 16.54 17.9765V21.9765ZM22 16.5165V9.23654H18V16.5165H22ZM22 9.23654C22 8.33509 21.6957 7.44114 21.3295 6.73905C20.9642 6.0388 20.4023 5.27056 19.6486 4.75541L17.3914 8.05766C17.3896 8.05643 17.4038 8.06608 17.4315 8.09248C17.4588 8.11848 17.4939 8.15561 17.5344 8.20526C17.6169 8.30648 17.7042 8.43803 17.783 8.58902C17.8617 8.73992 17.9205 8.88857 17.9576 9.01754C17.9962 9.15185 18 9.22561 18 9.23654H22ZM19.6676 4.76857L13.4876 0.438571L11.1924 3.7145L17.3724 8.0445L19.6676 4.76857ZM13.4889 0.439423C12.5015 -0.253441 11.3052 -0.520233 10.2229 -0.496743C9.14155 -0.473275 7.9548 -0.155086 7.00012 0.589392L9.45988 3.74368C9.5952 3.63816 9.89345 3.51135 10.3096 3.50232C10.7248 3.49331 11.0385 3.60651 11.1911 3.71365L13.4889 0.439423Z" fill="#707B81" mask="url(#path-1-inside-1_4_5)"/>
<path d="M10.75 16.9766C10.6161 16.9766 10.5 16.8604 10.5 16.7266V13.7266C10.5 13.5927 10.6161 13.4766 10.75 13.4766C10.8839 13.4766 11 13.5927 11 13.7266V16.7266C11 16.8604 10.8839 16.9766 10.75 16.9766Z" fill="#707B81" stroke="#707B81"/>
</svg>
