<svg width="16" height="22" viewBox="0 0 16 22" fill="none" xmlns="http://www.w3.org/2000/svg">
<path d="M7.55996 10.37C7.52996 10.37 7.50996 10.37 7.47996 10.37C7.42996 10.36 7.35996 10.36 7.29996 10.37C4.39996 10.28 2.20996 8 2.20996 5.19C2.20996 2.33 4.53996 0 7.39996 0C10.26 0 12.59 2.33 12.59 5.19C12.58 8 10.38 10.28 7.58996 10.37C7.57996 10.37 7.56996 10.37 7.55996 10.37ZM7.39996 1.5C5.36996 1.5 3.70996 3.16 3.70996 5.19C3.70996 7.19 5.26996 8.8 7.25996 8.87C7.30996 8.86 7.44996 8.86 7.57996 8.87C9.53996 8.78 11.08 7.17 11.09 5.19C11.09 3.16 9.42996 1.5 7.39996 1.5Z" fill="#707B81"/>
<path d="M7.57 21.3C5.61 21.3 3.64 20.8 2.15 19.8C0.76 18.88 0 17.62 0 16.25C0 14.88 0.76 13.61 2.15 12.68C5.15 10.69 10.01 10.69 12.99 12.68C14.37 13.6 15.14 14.86 15.14 16.23C15.14 17.6 14.38 18.87 12.99 19.8C11.49 20.8 9.53 21.3 7.57 21.3ZM2.98 13.94C2.02 14.58 1.5 15.4 1.5 16.26C1.5 17.11 2.03 17.93 2.98 18.56C5.47 20.23 9.67 20.23 12.16 18.56C13.12 17.92 13.64 17.1 13.64 16.24C13.64 15.39 13.11 14.57 12.16 13.94C9.67 12.28 5.47 12.28 2.98 13.94Z" fill="#707B81"/>
</svg>
